<svg id="undraw_weather_app_i5sm" xmlns="http://www.w3.org/2000/svg" width="881" height="722.628" viewBox="0 0 881 722.628">
  <path id="Trazado_243" data-name="Trazado 243" d="M929.008,664.122A147.008,147.008,0,0,0,691.72,548.1,159.073,159.073,0,0,0,419.8,603.829a118.634,118.634,0,1,0-78.817,207.3c1.844,0,3.676-.048,5.5-.131,1.883.082,3.774.131,5.676.131H797.476a128.962,128.962,0,0,0,128.35-116.48,147.58,147.58,0,0,0,3.182-30.527Z" transform="translate(-159.5 -88.871)" fill="#fff"/>
  <path id="Trazado_244" data-name="Trazado 244" d="M934.008,646.122A147.008,147.008,0,0,0,696.72,530.1,159.073,159.073,0,0,0,424.8,585.829a118.634,118.634,0,1,0-78.817,207.3c1.844,0,3.676-.048,5.5-.131,1.883.082,3.774.131,5.676.131H802.476a128.962,128.962,0,0,0,128.35-116.48,147.58,147.58,0,0,0,3.182-30.527Z" transform="translate(-159.5 -88.871)" fill="none" stroke="#3f3d56" stroke-miterlimit="10" stroke-width="1"/>
  <circle id="Elipse_28" data-name="Elipse 28" cx="93.445" cy="93.445" r="93.445" transform="translate(99.23 275.358)" fill="#ffd31d"/>
  <rect id="Rectángulo_39" data-name="Rectángulo 39" width="45.806" height="92.346" rx="22.903" transform="translate(170.077 165.056)" fill="#ffd31d"/>
  <rect id="Rectángulo_40" data-name="Rectángulo 40" width="45.806" height="92.346" rx="22.903" transform="translate(357.824 247.361) rotate(60)" fill="#ffd31d"/>
  <rect id="Rectángulo_41" data-name="Rectángulo 41" width="45.806" height="92.346" rx="22.903" transform="translate(27.526 490.245) rotate(-120)" fill="#ffd31d"/>
  <rect id="Rectángulo_42" data-name="Rectángulo 42" width="45.806" height="92.346" rx="22.903" transform="translate(4.928 286.499) rotate(-60)" fill="#ffd31d"/>
  <circle id="Elipse_29" data-name="Elipse 29" cx="93.445" cy="93.445" r="93.445" transform="translate(110.23 264.358)" fill="none" stroke="#3f3d56" stroke-miterlimit="10" stroke-width="1"/>
  <rect id="Rectángulo_43" data-name="Rectángulo 43" width="45.806" height="92.346" rx="22.903" transform="translate(181.077 154.056)" fill="none" stroke="#3f3d56" stroke-miterlimit="10" stroke-width="1"/>
  <rect id="Rectángulo_44" data-name="Rectángulo 44" width="45.806" height="92.346" rx="22.903" transform="translate(368.824 236.361) rotate(60)" fill="none" stroke="#3f3d56" stroke-miterlimit="10" stroke-width="1"/>
  <rect id="Rectángulo_45" data-name="Rectángulo 45" width="45.806" height="92.346" rx="22.903" transform="translate(38.526 479.245) rotate(-120)" fill="none" stroke="#3f3d56" stroke-miterlimit="10" stroke-width="1"/>
  <rect id="Rectángulo_46" data-name="Rectángulo 46" width="45.806" height="92.346" rx="22.903" transform="translate(15.928 275.499) rotate(-60)" fill="none" stroke="#3f3d56" stroke-miterlimit="10" stroke-width="1"/>
  <path id="Trazado_245" data-name="Trazado 245" d="M856.722,619.573l-16.091,32.8s-29.088-3.713-17.329,34.658c0,0-3.094,29.088-9.283,35.277s4.951,47.036,27.231,35.277c12.533-6.614,13.316-14.208,11.6-19.586a48.529,48.529,0,0,1-1.505-24.878c2.236-10.47,6.264-23.86,13.421-35.373,14.235-22.9,27.85-45.179,27.85-45.179Z" transform="translate(-159.5 -88.871)" fill="#a0616a"/>
  <path id="Trazado_246" data-name="Trazado 246" d="M816.494,417.814s-35.277-8.665-47.036-2.476-46.417,6.808-46.417,6.808-29.088,47.036-22.28,71.173,35.277,38.99,35.277,38.99l95.929.619L847.438,469.8s-7.427-43.323-13.616-45.8S816.494,417.814,816.494,417.814Z" transform="translate(-159.5 -88.871)" fill="#3e206d"/>
  <circle id="Elipse_30" data-name="Elipse 30" cx="52.606" cy="52.606" r="52.606" transform="translate(572.824 60.342)"/>
  <path id="Trazado_247" data-name="Trazado 247" d="M752.129,247s6.189,25.994-3.094,29.088-17.329,15.472-17.329,15.472l13.616,22.9,46.417,11.759L805.972,312.6l10.521-29.088-10.521-7.427s-9.9,3.094-10.521-6.808A165.047,165.047,0,0,1,796.07,247Z" transform="translate(-159.5 -88.871)" fill="#a0616a"/>
  <path id="Trazado_248" data-name="Trazado 248" d="M752.129,247s6.189,25.994-3.094,29.088-17.329,15.472-17.329,15.472l13.616,22.9,46.417,11.759L805.972,312.6l10.521-29.088-10.521-7.427s-9.9,3.094-10.521-6.808A165.047,165.047,0,0,1,796.07,247Z" transform="translate(-159.5 -88.871)" opacity="0.1"/>
  <circle id="Elipse_31" data-name="Elipse 31" cx="37.753" cy="37.753" r="37.753" transform="translate(578.703 99.642)" fill="#a0616a"/>
  <path id="Trazado_249" data-name="Trazado 249" d="M773.79,312.6l-35.9-32.8s-16.091,13.616-17.948,13.616-25.994,7.427-26.612,10.521,21.042,35.9,21.042,35.9-4.951,24.137,0,34.658,1.238,55.7,1.238,55.7,32.8-11.759,50.13-6.189,68.078,0,68.078,0,7.427-47.655,4.332-53.844-3.713-41.466-3.713-41.466l26.612-29.088s-5.57-22.28-26.612-23.518-34.039-2.476-34.039-2.476Z" transform="translate(-159.5 -88.871)" fill="#916dd5"/>
  <path id="Trazado_250" data-name="Trazado 250" d="M731.705,464.85s-69.316-31.564-97.166-46.417-70.554-3.094-56.938,30.326,89.74,66.222,89.74,66.222,24.756,18.567,39.609,17.948,36.205-.309,36.205-.309Z" transform="translate(-159.5 -88.871)" fill="#3e206d"/>
  <path id="Trazado_251" data-name="Trazado 251" d="M838.774,469.182s124.4,1.238,116.352,47.655-55.7,123.779-64.365,125.635-40.228-11.759-40.228-16.091,30.326-84.17,30.326-84.17l-74.267-22.9Z" transform="translate(-159.5 -88.871)" fill="#3e206d"/>
  <path id="Trazado_252" data-name="Trazado 252" d="M862.292,330.55s7.427,71.173,3.713,82.313-16.71,41.466-33.42,56.319-40.228,89.74-53.225,53.844,21.042-55.7,21.042-55.7l34.121-48.006.321-78.126Z" transform="translate(-159.5 -88.871)" fill="#a0616a"/>
  <path id="Trazado_253" data-name="Trazado 253" d="M723.041,479.7s61.271,21.661,68.078,18.567,21.661,8.046,21.661,8.046a53.351,53.351,0,0,1,40.228,7.427c19.8,13,24.137,27.85,19.8,28.469s-19.8-6.189-19.8-6.189-23.518-4.951-37.753-.619-32.786-4.8-32.786-4.8l-75.52-16.86Z" transform="translate(-159.5 -88.871)" fill="#a0616a"/>
  <path id="Trazado_254" data-name="Trazado 254" d="M723.041,479.7s61.271,21.661,68.078,18.567,21.661,8.046,21.661,8.046a53.351,53.351,0,0,1,40.228,7.427c19.8,13,24.137,27.85,19.8,28.469s-19.8-6.189-19.8-6.189-23.518-4.951-37.753-.619-32.786-4.8-32.786-4.8l-75.52-16.86Z" transform="translate(-159.5 -88.871)" opacity="0.1"/>
  <path id="Trazado_255" data-name="Trazado 255" d="M693.334,357.162s.619,76.743,9.9,86.026,19.186,21.661,28.469,27.231,14.235,18.567,14.235,18.567,44.56,64.984,45.179,35.277-22.9-53.225-22.9-53.225l-4.6-4.383a209.083,209.083,0,0,1-27.182-31.2,32.53,32.53,0,0,0-6.587-7.119c-8.046-6.189-9.9-74.267-9.9-74.267Z" transform="translate(-159.5 -88.871)" fill="#a0616a"/>
  <path id="Trazado_256" data-name="Trazado 256" d="M848.057,292.178l13,7.427s4.951,32.8,7.427,37.134-30.326,15.472-35.277,12.378-7.427-33.42-7.427-33.42Z" transform="translate(-159.5 -88.871)" fill="#916dd5"/>
  <path id="Trazado_257" data-name="Trazado 257" d="M701.379,303.318h-8.046s-8.664,9.283-8.046,29.088-7.427,32.182-2.476,34.039,29.647-7.971,29.368-5.223,12.717-2.2,12.717-2.2l-8.665-32.8Z" transform="translate(-159.5 -88.871)" fill="#916dd5"/>
  <path id="Trazado_258" data-name="Trazado 258" d="M639.181,430.192s37.753,16.091,48.274,18.567S731.981,480.2,731.981,480.2l-23.212,35.247s-23.79-2.945-36.787-5.42-90.359-53.844-77.362-62.508S639.181,430.192,639.181,430.192Z" transform="translate(-159.5 -88.871)" opacity="0.1"/>
  <path id="Trazado_259" data-name="Trazado 259" d="M631.444,430.192s37.753,16.091,48.274,18.567S731.705,479.7,731.705,479.7l-20.424,39.609s-34.039-6.808-47.036-9.283-90.359-53.844-77.362-62.508S631.444,430.192,631.444,430.192Z" transform="translate(-159.5 -88.871)" fill="#3e206d"/>
  <circle id="Elipse_32" data-name="Elipse 32" cx="52.606" cy="52.606" r="52.606" transform="translate(583.036 24.756)"/>
  <circle id="Elipse_33" data-name="Elipse 33" cx="24.756" cy="24.756" r="24.756" transform="translate(625.739 0)"/>
  <line id="Línea_2" data-name="Línea 2" x2="881" transform="translate(0 722.128)" fill="none" stroke="#3f3d56" stroke-miterlimit="10" stroke-width="1"/>
</svg>
